<?xml version="1.0" encoding="UTF-8" standalone="no"?>
<!-- Created with Inkscape (http://www.inkscape.org/) -->

<svg
   xmlns:dc="http://purl.org/dc/elements/1.1/"
   xmlns:cc="http://creativecommons.org/ns#"
   xmlns:rdf="http://www.w3.org/1999/02/22-rdf-syntax-ns#"
   xmlns:svg="http://www.w3.org/2000/svg"
   xmlns="http://www.w3.org/2000/svg"
   xmlns:sodipodi="http://sodipodi.sourceforge.net/DTD/sodipodi-0.dtd"
   xmlns:inkscape="http://www.inkscape.org/namespaces/inkscape"
   width="60"
   height="60"
   viewBox="0 0 60 60"
   id="svg5880"
   version="1.1"
   inkscape:version="0.91 r13725"
   sodipodi:docname="pomodoro.svg">
  <defs
     id="defs5882" />
  <sodipodi:namedview
     id="base"
     pagecolor="#ffffff"
     bordercolor="#666666"
     borderopacity="1.0"
     inkscape:pageopacity="0.0"
     inkscape:pageshadow="2"
     inkscape:zoom="5.6"
     inkscape:cx="34.907893"
     inkscape:cy="39.083037"
     inkscape:document-units="px"
     inkscape:current-layer="layer1"
     showgrid="false"
     inkscape:window-width="1920"
     inkscape:window-height="1027"
     inkscape:window-x="-8"
     inkscape:window-y="22"
     inkscape:window-maximized="1"
     units="px" />
  <metadata
     id="metadata5885">
    <rdf:RDF>
      <cc:Work
         rdf:about="">
        <dc:format>image/svg+xml</dc:format>
        <dc:type
           rdf:resource="http://purl.org/dc/dcmitype/StillImage" />
        <dc:title></dc:title>
      </cc:Work>
    </rdf:RDF>
  </metadata>
  <g
     inkscape:label="Layer 1"
     inkscape:groupmode="layer"
     id="layer1"
     transform="translate(0,-992.36216)">
    <g
       id="g5485"
       inkscape:label="icon"
       style="display:inline;fill:#f44336;fill-opacity:1;stroke:#f44336;stroke-width:0.99988204;stroke-miterlimit:4;stroke-dasharray:none;stroke-opacity:1"
       transform="matrix(0.18751502,0,0,0.18751502,-20.507608,979.03938)">
      <path
         style="fill:#f44336;fill-opacity:1;stroke:#f44336;stroke-width:0.99988204;stroke-linecap:round;stroke-linejoin:round;stroke-miterlimit:4;stroke-dasharray:none;stroke-opacity:1"
         d="m 127.84249,232.68999 c 0,87.92844 70.52594,133.72451 141.9678,133.72451 71.44186,0 141.05188,-49.45975 141.05188,-133.72451 0,-67.77818 -43.65751,-90.67621 -76.93739,-90.67621 -26.60488,0 -48.54383,18.31843 -48.54383,18.31843 l -30.2254,0 c 0,0 -16.48658,-17.40251 -54.95528,-17.40251 -38.46869,0 -72.35778,32.97317 -72.35778,89.76029 z"
         id="path5487"
         inkscape:connector-curvature="0"
         sodipodi:nodetypes="ssssccss" />
      <path
         style="fill:#f44336;fill-opacity:1;stroke:#f44336;stroke-width:0.99988204;stroke-linecap:round;stroke-linejoin:round;stroke-miterlimit:4;stroke-dasharray:none;stroke-opacity:1"
         d="m 262.48292,188.72577 c 0,0 20.15027,-22.89804 54.03936,-16.48659"
         id="path5489"
         inkscape:connector-curvature="0"
         sodipodi:nodetypes="cc" />
      <path
         style="fill:#f44336;fill-opacity:1;stroke:#f44336;stroke-width:0.99988204;stroke-linecap:round;stroke-linejoin:round;stroke-miterlimit:4;stroke-dasharray:none;stroke-opacity:1"
         d="m 223.09831,163.99589 c 0,0 25.64579,0.91592 42.13238,20.15027"
         id="path5491"
         inkscape:connector-curvature="0" />
      <path
         style="color:#000000;font-style:normal;font-variant:normal;font-weight:normal;font-stretch:normal;font-size:medium;line-height:normal;font-family:Sans;-inkscape-font-specification:Sans;text-indent:0;text-align:start;text-decoration:none;text-decoration-line:none;letter-spacing:normal;word-spacing:normal;text-transform:none;direction:ltr;block-progression:tb;writing-mode:lr-tb;baseline-shift:baseline;text-anchor:start;display:inline;overflow:visible;visibility:visible;fill:#f44336;fill-opacity:1;stroke:#f44336;stroke-width:0.99988204;stroke-miterlimit:4;stroke-dasharray:none;stroke-opacity:1;marker:none;enable-background:accumulate"
         d="m 359.53725,95.659376 c -37.69309,3.08985 -63.58126,18.253094 -76.33597,36.934234 -12.75471,18.68114 -15.0625,37.5 -15.0625,37.5 -0.3884,2.62798 0.32477,5.40126 1.93277,7.51584 1.608,2.11458 4.08986,3.54289 6.72606,3.87086 2.6362,0.32797 5.39238,-0.44868 7.46949,-2.1048 2.07711,-1.65612 3.44807,-4.17011 3.71543,-6.81315 0,0 1.80441,-14.16649 11.71875,-28.6875 9.91434,-14.52101 27.42472,-30.4405 60.7938,-37.65324 3.58809,-0.96143 8.03748,-0.68215 8.05381,-5.87884 -0.38633,-4.502574 -3.81496,-4.701444 -9.01164,-4.683404 z"
         id="path5493"
         inkscape:connector-curvature="0"
         sodipodi:nodetypes="cscssscsccc" />
      <path
         style="color:#000000;font-style:normal;font-variant:normal;font-weight:normal;font-stretch:normal;font-size:medium;line-height:normal;font-family:Sans;-inkscape-font-specification:Sans;text-indent:0;text-align:start;text-decoration:none;text-decoration-line:none;letter-spacing:normal;word-spacing:normal;text-transform:none;direction:ltr;block-progression:tb;writing-mode:lr-tb;baseline-shift:baseline;text-anchor:start;display:inline;overflow:visible;visibility:visible;fill:#f44336;fill-opacity:1;stroke:#f44336;stroke-width:0.99988204;stroke-miterlimit:4;stroke-dasharray:none;stroke-opacity:1;marker:none;enable-background:accumulate"
         d="m 268.73253,95.906106 c -2.61801,0.0409 -9.20308,1.15922 -11.02537,3.03935 -1.82229,1.880144 -2.85934,4.498894 -2.81838,7.116904 l 4,63.4375 c -0.0374,2.64156 1.0236,5.28181 2.8784,7.16302 1.8548,1.88121 4.47977,2.9794 7.1216,2.9794 2.64183,0 5.2668,-1.09819 7.1216,-2.9794 1.8548,-1.88121 2.91576,-4.52146 2.8784,-7.16302 l 4,-63.4375 c 0.0418,-2.67009 -1.03973,-5.33998 -2.928,-7.228254 -1.88827,-1.88827 -8.55816,-2.96978 -11.22825,-2.928 z"
         id="path5495"
         inkscape:connector-curvature="0"
         sodipodi:nodetypes="csccsssccsc" />
      <path
         style="color:#000000;font-style:normal;font-variant:normal;font-weight:normal;font-stretch:normal;font-size:medium;line-height:normal;font-family:Sans;-inkscape-font-specification:Sans;text-indent:0;text-align:start;text-decoration:none;text-decoration-line:none;letter-spacing:normal;word-spacing:normal;text-transform:none;direction:ltr;block-progression:tb;writing-mode:lr-tb;baseline-shift:baseline;text-anchor:start;display:inline;overflow:visible;visibility:visible;fill:#f44336;fill-opacity:1;stroke:#f44336;stroke-width:0.99988204;stroke-miterlimit:4;stroke-dasharray:none;stroke-opacity:1;marker:none;enable-background:accumulate"
         d="m 179.04655,105.65938 c 37.69309,3.08985 65.58126,8.25309 78.33597,26.93423 12.75471,18.68114 15.0625,37.5 15.0625,37.5 0.3884,2.62798 -0.32477,5.40126 -1.93277,7.51584 -1.608,2.11458 -4.08986,3.54289 -6.72606,3.87086 -2.6362,0.32797 -5.39238,-0.44868 -7.46949,-2.1048 -2.07711,-1.65612 -3.44807,-4.17011 -3.71543,-6.81315 0,0 -1.80441,-14.16649 -11.71875,-28.6875 -9.91434,-14.52101 -29.42472,-20.4405 -62.7938,-27.65324 -3.58809,-0.96143 -8.03748,-0.68215 -8.05381,-5.87884 0.38633,-4.50257 3.81496,-4.70144 9.01164,-4.6834 z"
         id="path5497"
         inkscape:connector-curvature="0"
         sodipodi:nodetypes="cscssscsccc" />
    </g>
  </g>
</svg>
